<?xml version="1.0" encoding="iso-8859-1"?>
<!-- Generator: Adobe Illustrator 19.0.0, SVG Export Plug-In . SVG Version: 6.00 Build 0)  -->
<svg xmlns="http://www.w3.org/2000/svg" xmlns:xlink="http://www.w3.org/1999/xlink" version="1.1" id="Capa_1" x="0px" y="0px" viewBox="0 0 460 460" style="enable-background:new 0 0 460 460;" xml:space="preserve" width="512" height="512">
<g id="XMLID_1795_">
	<path id="XMLID_1794_" style="fill:#4C4D4D;" d="M150,375c0,5.523-4.477,10-10,10h-40c-5.523,0-10-4.477-10-10v-70h60V375z    M370,305h-60v70c0,5.523,4.477,10,10,10h40c5.523,0,10-4.477,10-10V305z M260,75h-60c-5.523,0-10,4.477-10,10v60   c0,5.523,4.477,10,10,10h60c5.523,0,10-4.477,10-10V85C270,79.477,265.523,75,260,75z"/>
	<path id="XMLID_1785_" style="fill:#343535;" d="M150,375H90v-60h60V375z M370,315h-60v60h60V315z"/>
	<path id="XMLID_1790_" style="fill:#737373;" d="M400,365H60c-33.137,0-60-26.863-60-60V165c0-33.137,26.863-60,60-60h340   c33.137,0,60,26.863,60,60v140C460,338.137,433.137,365,400,365z M260,85L260,85c0-5.523-4.477-10-10-10h-50   c-5.523,0-10,4.477-10,10v10h60C255.523,95,260,90.523,260,85z"/>
	<path id="XMLID_487_" style="fill:#343535;" d="M400,325H60c-11.046,0-20-8.954-20-20V165c0-11.046,8.954-20,20-20h340   c11.046,0,20,8.954,20,20v140C420,316.046,411.046,325,400,325z M265,343v-6c0-1.105-0.895-2-2-2h-66c-1.105,0-2,0.895-2,2v6   c0,1.105,0.895,2,2,2h66C264.105,345,265,344.105,265,343z"/>
	<path id="XMLID_941_" style="fill:#B7E567;" d="M155,175c0,2.761-2.239,5-5,5h-50c-2.761,0-5-2.239-5-5s2.239-5,5-5h50   C152.761,170,155,172.239,155,175z M150,190c-2.761,0-5,2.239-5,5v40c0,2.761,2.239,5,5,5s5-2.239,5-5v-40   C155,192.239,152.761,190,150,190z M150,250c-2.761,0-5,2.239-5,5v40c0,2.761,2.239,5,5,5s5-2.239,5-5v-40   C155,252.239,152.761,250,150,250z M280,170h-50c-2.761,0-5,2.239-5,5s2.239,5,5,5h50c2.761,0,5-2.239,5-5S282.761,170,280,170z    M280,290h-50c-2.761,0-5,2.239-5,5s2.239,5,5,5h50c2.761,0,5-2.239,5-5S282.761,290,280,290z M230,230c2.761,0,5-2.239,5-5v-30   c0-2.761-2.239-5-5-5s-5,2.239-5,5v30C225,227.761,227.239,230,230,230z M230,280c2.761,0,5-2.239,5-5v-30c0-2.761-2.239-5-5-5   s-5,2.239-5,5v30C225,277.761,227.239,280,230,280z M280,190c-2.761,0-5,2.239-5,5v30c0,2.761,2.239,5,5,5s5-2.239,5-5v-30   C285,192.239,282.761,190,280,190z M280,240c-2.761,0-5,2.239-5,5v30c0,2.761,2.239,5,5,5s5-2.239,5-5v-30   C285,242.239,282.761,240,280,240z M310,180h50c2.761,0,5-2.239,5-5s-2.239-5-5-5h-50c-2.761,0-5,2.239-5,5S307.239,180,310,180z    M360,290h-50c-2.761,0-5,2.239-5,5s2.239,5,5,5h50c2.761,0,5-2.239,5-5S362.761,290,360,290z M310,230c2.761,0,5-2.239,5-5v-30   c0-2.761-2.239-5-5-5s-5,2.239-5,5v30C305,227.761,307.239,230,310,230z M310,280c2.761,0,5-2.239,5-5v-30c0-2.761-2.239-5-5-5   s-5,2.239-5,5v30C305,277.761,307.239,280,310,280z M360,190c-2.761,0-5,2.239-5,5v30c0,2.761,2.239,5,5,5s5-2.239,5-5v-30   C365,192.239,362.761,190,360,190z M360,240c-2.761,0-5,2.239-5,5v30c0,2.761,2.239,5,5,5s5-2.239,5-5v-30   C365,242.239,362.761,240,360,240z M190,204c-2.761,0-5,2.239-5,5v2c0,2.761,2.239,5,5,5s5-2.239,5-5v-2   C195,206.239,192.761,204,190,204z M190,254c-2.761,0-5,2.239-5,5v2c0,2.761,2.239,5,5,5s5-2.239,5-5v-2   C195,256.239,192.761,254,190,254z"/>
</g>















</svg>
